<svg xmlns="http://www.w3.org/2000/svg" width="980" height="590" viewBox="0 0 980 590" role="img" aria-labelledby="title desc">
  <title id="title">Atividade de Ailton Rodrigues no GitHub</title>
  <desc id="desc">Resumo personalizado de contribuições, commits, pull requests, revisões, issues e calendário de atividade.</desc>
  <style>
    text { font-family: -apple-system, BlinkMacSystemFont, "Segoe UI", Helvetica, Arial, sans-serif; fill: #1f2328; }
    .heading { font-size: 24px; font-weight: 650; }
    .subtitle, .month { font-size: 12px; fill: #656d76; }
    .label { font-size: 12px; fill: #656d76; }
    .value { font-size: 22px; font-weight: 650; fill: #0969da; }
    .section { font-size: 15px; font-weight: 600; }
    .repo { font-size: 13px; fill: #0969da; }
    a:hover .repo { text-decoration: underline; }
  </style>
  <rect x="0.5" y="0.5" width="979" height="589" rx="10" fill="#ffffff" stroke="#d0d7de"/>
  <text x="28" y="42" class="heading">Atividade no GitHub</text>
  <text x="28" y="66" class="subtitle">Últimos 12 meses · dados oficiais da API do GitHub · atualizado em 21/06/2026 21:04 UTC</text>
  
    <g transform="translate(28 92)">
      <rect width="142" height="82" rx="8" fill="#f6f8fa" stroke="#d0d7de"/>
      <text x="18" y="32" class="label">Contribuições</text>
      <text x="18" y="62" class="value">77</text>
    </g>
    <g transform="translate(184 92)">
      <rect width="142" height="82" rx="8" fill="#f6f8fa" stroke="#d0d7de"/>
      <text x="18" y="32" class="label">Commits</text>
      <text x="18" y="62" class="value">40</text>
    </g>
    <g transform="translate(340 92)">
      <rect width="142" height="82" rx="8" fill="#f6f8fa" stroke="#d0d7de"/>
      <text x="18" y="32" class="label">Pull requests</text>
      <text x="18" y="62" class="value">25</text>
    </g>
    <g transform="translate(496 92)">
      <rect width="142" height="82" rx="8" fill="#f6f8fa" stroke="#d0d7de"/>
      <text x="18" y="32" class="label">Reviews</text>
      <text x="18" y="62" class="value">0</text>
    </g>
    <g transform="translate(652 92)">
      <rect width="142" height="82" rx="8" fill="#f6f8fa" stroke="#d0d7de"/>
      <text x="18" y="32" class="label">Issues</text>
      <text x="18" y="62" class="value">1</text>
    </g>
    <g transform="translate(808 92)">
      <rect width="142" height="82" rx="8" fill="#f6f8fa" stroke="#d0d7de"/>
      <text x="18" y="32" class="label">Contribuições privadas</text>
      <text x="18" y="62" class="value">0</text>
    </g>
  <text x="28" y="218" class="section">Calendário de contribuições</text>
  <text x="28" y="251" class="label">Dom</text>
  <text x="28" y="279" class="label">Ter</text>
  <text x="28" y="307" class="label">Qui</text>
  <text x="28" y="335" class="label">Sáb</text>
  <text x="142" y="218" class="month">Jun</text><text x="170" y="218" class="month">Jul</text><text x="226" y="218" class="month">Ago</text><text x="296" y="218" class="month">Set</text><text x="352" y="218" class="month">Out</text><text x="408" y="218" class="month">Nov</text><text x="478" y="218" class="month">Dez</text><text x="534" y="218" class="month">Jan</text><text x="590" y="218" class="month">Fev</text><text x="646" y="218" class="month">Mar</text><text x="716" y="218" class="month">Abr</text><text x="772" y="218" class="month">Mai</text><text x="842" y="218" class="month">Jun</text>
  <rect x="142" y="236" width="11" height="11" rx="2" fill="#ebedf0"><title>2025-06-22: 0 contribuições</title></rect><rect x="142" y="250" width="11" height="11" rx="2" fill="#ebedf0"><title>2025-06-23: 0 contribuições</title></rect><rect x="142" y="264" width="11" height="11" rx="2" fill="#ebedf0"><title>2025-06-24: 0 contribuições</title></rect><rect x="142" y="278" width="11" height="11" rx="2" fill="#ebedf0"><title>2025-06-25: 0 contribuições</title></rect><rect x="142" y="292" width="11" height="11" rx="2" fill="#ebedf0"><title>2025-06-26: 0 contribuições</title></rect><rect x="142" y="306" width="11" height="11" rx="2" fill="#ebedf0"><title>2025-06-27: 0 contribuições</title></rect><rect x="142" y="320" width="11" height="11" rx="2" fill="#ebedf0"><title>2025-06-28: 0 contribuições</title></rect><rect x="156" y="236" width="11" height="11" rx="2" fill="#ebedf0"><title>2025-06-29: 0 contribuições</title></rect><rect x="156" y="250" width="11" height="11" rx="2" fill="#40c463"><title>2025-06-30: 2 contribuições</title></rect><rect x="156" y="264" width="11" height="11" rx="2" fill="#9be9a8"><title>2025-07-01: 1 contribuições</title></rect><rect x="156" y="278" width="11" height="11" rx="2" fill="#216e39"><title>2025-07-02: 4 contribuições</title></rect><rect x="156" y="292" width="11" height="11" rx="2" fill="#ebedf0"><title>2025-07-03: 0 contribuições</title></rect><rect x="156" y="306" width="11" height="11" rx="2" fill="#ebedf0"><title>2025-07-04: 0 contribuições</title></rect><rect x="156" y="320" width="11" height="11" rx="2" fill="#ebedf0"><title>2025-07-05: 0 contribuições</title></rect><rect x="170" y="236" width="11" height="11" rx="2" fill="#ebedf0"><title>2025-07-06: 0 contribuições</title></rect><rect x="170" y="250" width="11" height="11" rx="2" fill="#ebedf0"><title>2025-07-07: 0 contribuições</title></rect><rect x="170" y="264" width="11" height="11" rx="2" fill="#ebedf0"><title>2025-07-08: 0 contribuições</title></rect><rect x="170" y="278" width="11" height="11" rx="2" fill="#ebedf0"><title>2025-07-09: 0 contribuições</title></rect><rect x="170" y="292" width="11" height="11" rx="2" fill="#ebedf0"><title>2025-07-10: 0 contribuições</title></rect><rect x="170" y="306" width="11" height="11" rx="2" fill="#ebedf0"><title>2025-07-11: 0 contribuições</title></rect><rect x="170" y="320" width="11" height="11" rx="2" fill="#ebedf0"><title>2025-07-12: 0 contribuições</title></rect><rect x="184" y="236" width="11" height="11" rx="2" fill="#ebedf0"><title>2025-07-13: 0 contribuições</title></rect><rect x="184" y="250" width="11" height="11" rx="2" fill="#9be9a8"><title>2025-07-14: 1 contribuições</title></rect><rect x="184" y="264" width="11" height="11" rx="2" fill="#216e39"><title>2025-07-15: 11 contribuições</title></rect><rect x="184" y="278" width="11" height="11" rx="2" fill="#216e39"><title>2025-07-16: 22 contribuições</title></rect><rect x="184" y="292" width="11" height="11" rx="2" fill="#ebedf0"><title>2025-07-17: 0 contribuições</title></rect><rect x="184" y="306" width="11" height="11" rx="2" fill="#ebedf0"><title>2025-07-18: 0 contribuições</title></rect><rect x="184" y="320" width="11" height="11" rx="2" fill="#ebedf0"><title>2025-07-19: 0 contribuições</title></rect><rect x="198" y="236" width="11" height="11" rx="2" fill="#ebedf0"><title>2025-07-20: 0 contribuições</title></rect><rect x="198" y="250" width="11" height="11" rx="2" fill="#ebedf0"><title>2025-07-21: 0 contribuições</title></rect><rect x="198" y="264" width="11" height="11" rx="2" fill="#ebedf0"><title>2025-07-22: 0 contribuições</title></rect><rect x="198" y="278" width="11" height="11" rx="2" fill="#ebedf0"><title>2025-07-23: 0 contribuições</title></rect><rect x="198" y="292" width="11" height="11" rx="2" fill="#ebedf0"><title>2025-07-24: 0 contribuições</title></rect><rect x="198" y="306" width="11" height="11" rx="2" fill="#ebedf0"><title>2025-07-25: 0 contribuições</title></rect><rect x="198" y="320" width="11" height="11" rx="2" fill="#ebedf0"><title>2025-07-26: 0 contribuições</title></rect><rect x="212" y="236" width="11" height="11" rx="2" fill="#ebedf0"><title>2025-07-27: 0 contribuições</title></rect><rect x="212" y="250" width="11" height="11" rx="2" fill="#40c463"><title>2025-07-28: 2 contribuições</title></rect><rect x="212" y="264" width="11" height="11" rx="2" fill="#ebedf0"><title>2025-07-29: 0 contribuições</title></rect><rect x="212" y="278" width="11" height="11" rx="2" fill="#ebedf0"><title>2025-07-30: 0 contribuições</title></rect><rect x="212" y="292" width="11" height="11" rx="2" fill="#ebedf0"><title>2025-07-31: 0 contribuições</title></rect><rect x="212" y="306" width="11" height="11" rx="2" fill="#ebedf0"><title>2025-08-01: 0 contribuições</title></rect><rect x="212" y="320" width="11" height="11" rx="2" fill="#ebedf0"><title>2025-08-02: 0 contribuições</title></rect><rect x="226" y="236" width="11" height="11" rx="2" fill="#ebedf0"><title>2025-08-03: 0 contribuições</title></rect><rect x="226" y="250" width="11" height="11" rx="2" fill="#ebedf0"><title>2025-08-04: 0 contribuições</title></rect><rect x="226" y="264" width="11" height="11" rx="2" fill="#9be9a8"><title>2025-08-05: 1 contribuições</title></rect><rect x="226" y="278" width="11" height="11" rx="2" fill="#ebedf0"><title>2025-08-06: 0 contribuições</title></rect><rect x="226" y="292" width="11" height="11" rx="2" fill="#ebedf0"><title>2025-08-07: 0 contribuições</title></rect><rect x="226" y="306" width="11" height="11" rx="2" fill="#9be9a8"><title>2025-08-08: 1 contribuições</title></rect><rect x="226" y="320" width="11" height="11" rx="2" fill="#ebedf0"><title>2025-08-09: 0 contribuições</title></rect><rect x="240" y="236" width="11" height="11" rx="2" fill="#ebedf0"><title>2025-08-10: 0 contribuições</title></rect><rect x="240" y="250" width="11" height="11" rx="2" fill="#ebedf0"><title>2025-08-11: 0 contribuições</title></rect><rect x="240" y="264" width="11" height="11" rx="2" fill="#ebedf0"><title>2025-08-12: 0 contribuições</title></rect><rect x="240" y="278" width="11" height="11" rx="2" fill="#ebedf0"><title>2025-08-13: 0 contribuições</title></rect><rect x="240" y="292" width="11" height="11" rx="2" fill="#ebedf0"><title>2025-08-14: 0 contribuições</title></rect><rect x="240" y="306" width="11" height="11" rx="2" fill="#ebedf0"><title>2025-08-15: 0 contribuições</title></rect><rect x="240" y="320" width="11" height="11" rx="2" fill="#ebedf0"><title>2025-08-16: 0 contribuições</title></rect><rect x="254" y="236" width="11" height="11" rx="2" fill="#ebedf0"><title>2025-08-17: 0 contribuições</title></rect><rect x="254" y="250" width="11" height="11" rx="2" fill="#ebedf0"><title>2025-08-18: 0 contribuições</title></rect><rect x="254" y="264" width="11" height="11" rx="2" fill="#ebedf0"><title>2025-08-19: 0 contribuições</title></rect><rect x="254" y="278" width="11" height="11" rx="2" fill="#ebedf0"><title>2025-08-20: 0 contribuições</title></rect><rect x="254" y="292" width="11" height="11" rx="2" fill="#ebedf0"><title>2025-08-21: 0 contribuições</title></rect><rect x="254" y="306" width="11" height="11" rx="2" fill="#ebedf0"><title>2025-08-22: 0 contribuições</title></rect><rect x="254" y="320" width="11" height="11" rx="2" fill="#ebedf0"><title>2025-08-23: 0 contribuições</title></rect><rect x="268" y="236" width="11" height="11" rx="2" fill="#ebedf0"><title>2025-08-24: 0 contribuições</title></rect><rect x="268" y="250" width="11" height="11" rx="2" fill="#ebedf0"><title>2025-08-25: 0 contribuições</title></rect><rect x="268" y="264" width="11" height="11" rx="2" fill="#ebedf0"><title>2025-08-26: 0 contribuições</title></rect><rect x="268" y="278" width="11" height="11" rx="2" fill="#ebedf0"><title>2025-08-27: 0 contribuições</title></rect><rect x="268" y="292" width="11" height="11" rx="2" fill="#ebedf0"><title>2025-08-28: 0 contribuições</title></rect><rect x="268" y="306" width="11" height="11" rx="2" fill="#ebedf0"><title>2025-08-29: 0 contribuições</title></rect><rect x="268" y="320" width="11" height="11" rx="2" fill="#ebedf0"><title>2025-08-30: 0 contribuições</title></rect><rect x="282" y="236" width="11" height="11" rx="2" fill="#ebedf0"><title>2025-08-31: 0 contribuições</title></rect><rect x="282" y="250" width="11" height="11" rx="2" fill="#ebedf0"><title>2025-09-01: 0 contribuições</title></rect><rect x="282" y="264" width="11" height="11" rx="2" fill="#ebedf0"><title>2025-09-02: 0 contribuições</title></rect><rect x="282" y="278" width="11" height="11" rx="2" fill="#ebedf0"><title>2025-09-03: 0 contribuições</title></rect><rect x="282" y="292" width="11" height="11" rx="2" fill="#ebedf0"><title>2025-09-04: 0 contribuições</title></rect><rect x="282" y="306" width="11" height="11" rx="2" fill="#ebedf0"><title>2025-09-05: 0 contribuições</title></rect><rect x="282" y="320" width="11" height="11" rx="2" fill="#ebedf0"><title>2025-09-06: 0 contribuições</title></rect><rect x="296" y="236" width="11" height="11" rx="2" fill="#ebedf0"><title>2025-09-07: 0 contribuições</title></rect><rect x="296" y="250" width="11" height="11" rx="2" fill="#ebedf0"><title>2025-09-08: 0 contribuições</title></rect><rect x="296" y="264" width="11" height="11" rx="2" fill="#ebedf0"><title>2025-09-09: 0 contribuições</title></rect><rect x="296" y="278" width="11" height="11" rx="2" fill="#ebedf0"><title>2025-09-10: 0 contribuições</title></rect><rect x="296" y="292" width="11" height="11" rx="2" fill="#ebedf0"><title>2025-09-11: 0 contribuições</title></rect><rect x="296" y="306" width="11" height="11" rx="2" fill="#ebedf0"><title>2025-09-12: 0 contribuições</title></rect><rect x="296" y="320" width="11" height="11" rx="2" fill="#ebedf0"><title>2025-09-13: 0 contribuições</title></rect><rect x="310" y="236" width="11" height="11" rx="2" fill="#ebedf0"><title>2025-09-14: 0 contribuições</title></rect><rect x="310" y="250" width="11" height="11" rx="2" fill="#ebedf0"><title>2025-09-15: 0 contribuições</title></rect><rect x="310" y="264" width="11" height="11" rx="2" fill="#ebedf0"><title>2025-09-16: 0 contribuições</title></rect><rect x="310" y="278" width="11" height="11" rx="2" fill="#ebedf0"><title>2025-09-17: 0 contribuições</title></rect><rect x="310" y="292" width="11" height="11" rx="2" fill="#ebedf0"><title>2025-09-18: 0 contribuições</title></rect><rect x="310" y="306" width="11" height="11" rx="2" fill="#ebedf0"><title>2025-09-19: 0 contribuições</title></rect><rect x="310" y="320" width="11" height="11" rx="2" fill="#ebedf0"><title>2025-09-20: 0 contribuições</title></rect><rect x="324" y="236" width="11" height="11" rx="2" fill="#ebedf0"><title>2025-09-21: 0 contribuições</title></rect><rect x="324" y="250" width="11" height="11" rx="2" fill="#ebedf0"><title>2025-09-22: 0 contribuições</title></rect><rect x="324" y="264" width="11" height="11" rx="2" fill="#30a14e"><title>2025-09-23: 3 contribuições</title></rect><rect x="324" y="278" width="11" height="11" rx="2" fill="#ebedf0"><title>2025-09-24: 0 contribuições</title></rect><rect x="324" y="292" width="11" height="11" rx="2" fill="#ebedf0"><title>2025-09-25: 0 contribuições</title></rect><rect x="324" y="306" width="11" height="11" rx="2" fill="#ebedf0"><title>2025-09-26: 0 contribuições</title></rect><rect x="324" y="320" width="11" height="11" rx="2" fill="#ebedf0"><title>2025-09-27: 0 contribuições</title></rect><rect x="338" y="236" width="11" height="11" rx="2" fill="#ebedf0"><title>2025-09-28: 0 contribuições</title></rect><rect x="338" y="250" width="11" height="11" rx="2" fill="#ebedf0"><title>2025-09-29: 0 contribuições</title></rect><rect x="338" y="264" width="11" height="11" rx="2" fill="#ebedf0"><title>2025-09-30: 0 contribuições</title></rect><rect x="338" y="278" width="11" height="11" rx="2" fill="#ebedf0"><title>2025-10-01: 0 contribuições</title></rect><rect x="338" y="292" width="11" height="11" rx="2" fill="#ebedf0"><title>2025-10-02: 0 contribuições</title></rect><rect x="338" y="306" width="11" height="11" rx="2" fill="#ebedf0"><title>2025-10-03: 0 contribuições</title></rect><rect x="338" y="320" width="11" height="11" rx="2" fill="#ebedf0"><title>2025-10-04: 0 contribuições</title></rect><rect x="352" y="236" width="11" height="11" rx="2" fill="#ebedf0"><title>2025-10-05: 0 contribuições</title></rect><rect x="352" y="250" width="11" height="11" rx="2" fill="#ebedf0"><title>2025-10-06: 0 contribuições</title></rect><rect x="352" y="264" width="11" height="11" rx="2" fill="#ebedf0"><title>2025-10-07: 0 contribuições</title></rect><rect x="352" y="278" width="11" height="11" rx="2" fill="#ebedf0"><title>2025-10-08: 0 contribuições</title></rect><rect x="352" y="292" width="11" height="11" rx="2" fill="#ebedf0"><title>2025-10-09: 0 contribuições</title></rect><rect x="352" y="306" width="11" height="11" rx="2" fill="#ebedf0"><title>2025-10-10: 0 contribuições</title></rect><rect x="352" y="320" width="11" height="11" rx="2" fill="#ebedf0"><title>2025-10-11: 0 contribuições</title></rect><rect x="366" y="236" width="11" height="11" rx="2" fill="#ebedf0"><title>2025-10-12: 0 contribuições</title></rect><rect x="366" y="250" width="11" height="11" rx="2" fill="#ebedf0"><title>2025-10-13: 0 contribuições</title></rect><rect x="366" y="264" width="11" height="11" rx="2" fill="#ebedf0"><title>2025-10-14: 0 contribuições</title></rect><rect x="366" y="278" width="11" height="11" rx="2" fill="#ebedf0"><title>2025-10-15: 0 contribuições</title></rect><rect x="366" y="292" width="11" height="11" rx="2" fill="#ebedf0"><title>2025-10-16: 0 contribuições</title></rect><rect x="366" y="306" width="11" height="11" rx="2" fill="#ebedf0"><title>2025-10-17: 0 contribuições</title></rect><rect x="366" y="320" width="11" height="11" rx="2" fill="#ebedf0"><title>2025-10-18: 0 contribuições</title></rect><rect x="380" y="236" width="11" height="11" rx="2" fill="#ebedf0"><title>2025-10-19: 0 contribuições</title></rect><rect x="380" y="250" width="11" height="11" rx="2" fill="#ebedf0"><title>2025-10-20: 0 contribuições</title></rect><rect x="380" y="264" width="11" height="11" rx="2" fill="#9be9a8"><title>2025-10-21: 1 contribuições</title></rect><rect x="380" y="278" width="11" height="11" rx="2" fill="#ebedf0"><title>2025-10-22: 0 contribuições</title></rect><rect x="380" y="292" width="11" height="11" rx="2" fill="#ebedf0"><title>2025-10-23: 0 contribuições</title></rect><rect x="380" y="306" width="11" height="11" rx="2" fill="#ebedf0"><title>2025-10-24: 0 contribuições</title></rect><rect x="380" y="320" width="11" height="11" rx="2" fill="#ebedf0"><title>2025-10-25: 0 contribuições</title></rect><rect x="394" y="236" width="11" height="11" rx="2" fill="#ebedf0"><title>2025-10-26: 0 contribuições</title></rect><rect x="394" y="250" width="11" height="11" rx="2" fill="#ebedf0"><title>2025-10-27: 0 contribuições</title></rect><rect x="394" y="264" width="11" height="11" rx="2" fill="#ebedf0"><title>2025-10-28: 0 contribuições</title></rect><rect x="394" y="278" width="11" height="11" rx="2" fill="#40c463"><title>2025-10-29: 2 contribuições</title></rect><rect x="394" y="292" width="11" height="11" rx="2" fill="#ebedf0"><title>2025-10-30: 0 contribuições</title></rect><rect x="394" y="306" width="11" height="11" rx="2" fill="#ebedf0"><title>2025-10-31: 0 contribuições</title></rect><rect x="394" y="320" width="11" height="11" rx="2" fill="#ebedf0"><title>2025-11-01: 0 contribuições</title></rect><rect x="408" y="236" width="11" height="11" rx="2" fill="#ebedf0"><title>2025-11-02: 0 contribuições</title></rect><rect x="408" y="250" width="11" height="11" rx="2" fill="#ebedf0"><title>2025-11-03: 0 contribuições</title></rect><rect x="408" y="264" width="11" height="11" rx="2" fill="#ebedf0"><title>2025-11-04: 0 contribuições</title></rect><rect x="408" y="278" width="11" height="11" rx="2" fill="#ebedf0"><title>2025-11-05: 0 contribuições</title></rect><rect x="408" y="292" width="11" height="11" rx="2" fill="#ebedf0"><title>2025-11-06: 0 contribuições</title></rect><rect x="408" y="306" width="11" height="11" rx="2" fill="#ebedf0"><title>2025-11-07: 0 contribuições</title></rect><rect x="408" y="320" width="11" height="11" rx="2" fill="#ebedf0"><title>2025-11-08: 0 contribuições</title></rect><rect x="422" y="236" width="11" height="11" rx="2" fill="#ebedf0"><title>2025-11-09: 0 contribuições</title></rect><rect x="422" y="250" width="11" height="11" rx="2" fill="#ebedf0"><title>2025-11-10: 0 contribuições</title></rect><rect x="422" y="264" width="11" height="11" rx="2" fill="#ebedf0"><title>2025-11-11: 0 contribuições</title></rect><rect x="422" y="278" width="11" height="11" rx="2" fill="#ebedf0"><title>2025-11-12: 0 contribuições</title></rect><rect x="422" y="292" width="11" height="11" rx="2" fill="#9be9a8"><title>2025-11-13: 1 contribuições</title></rect><rect x="422" y="306" width="11" height="11" rx="2" fill="#ebedf0"><title>2025-11-14: 0 contribuições</title></rect><rect x="422" y="320" width="11" height="11" rx="2" fill="#ebedf0"><title>2025-11-15: 0 contribuições</title></rect><rect x="436" y="236" width="11" height="11" rx="2" fill="#ebedf0"><title>2025-11-16: 0 contribuições</title></rect><rect x="436" y="250" width="11" height="11" rx="2" fill="#ebedf0"><title>2025-11-17: 0 contribuições</title></rect><rect x="436" y="264" width="11" height="11" rx="2" fill="#ebedf0"><title>2025-11-18: 0 contribuições</title></rect><rect x="436" y="278" width="11" height="11" rx="2" fill="#ebedf0"><title>2025-11-19: 0 contribuições</title></rect><rect x="436" y="292" width="11" height="11" rx="2" fill="#ebedf0"><title>2025-11-20: 0 contribuições</title></rect><rect x="436" y="306" width="11" height="11" rx="2" fill="#ebedf0"><title>2025-11-21: 0 contribuições</title></rect><rect x="436" y="320" width="11" height="11" rx="2" fill="#ebedf0"><title>2025-11-22: 0 contribuições</title></rect><rect x="450" y="236" width="11" height="11" rx="2" fill="#ebedf0"><title>2025-11-23: 0 contribuições</title></rect><rect x="450" y="250" width="11" height="11" rx="2" fill="#ebedf0"><title>2025-11-24: 0 contribuições</title></rect><rect x="450" y="264" width="11" height="11" rx="2" fill="#ebedf0"><title>2025-11-25: 0 contribuições</title></rect><rect x="450" y="278" width="11" height="11" rx="2" fill="#ebedf0"><title>2025-11-26: 0 contribuições</title></rect><rect x="450" y="292" width="11" height="11" rx="2" fill="#ebedf0"><title>2025-11-27: 0 contribuições</title></rect><rect x="450" y="306" width="11" height="11" rx="2" fill="#ebedf0"><title>2025-11-28: 0 contribuições</title></rect><rect x="450" y="320" width="11" height="11" rx="2" fill="#ebedf0"><title>2025-11-29: 0 contribuições</title></rect><rect x="464" y="236" width="11" height="11" rx="2" fill="#ebedf0"><title>2025-11-30: 0 contribuições</title></rect><rect x="464" y="250" width="11" height="11" rx="2" fill="#ebedf0"><title>2025-12-01: 0 contribuições</title></rect><rect x="464" y="264" width="11" height="11" rx="2" fill="#ebedf0"><title>2025-12-02: 0 contribuições</title></rect><rect x="464" y="278" width="11" height="11" rx="2" fill="#ebedf0"><title>2025-12-03: 0 contribuições</title></rect><rect x="464" y="292" width="11" height="11" rx="2" fill="#ebedf0"><title>2025-12-04: 0 contribuições</title></rect><rect x="464" y="306" width="11" height="11" rx="2" fill="#ebedf0"><title>2025-12-05: 0 contribuições</title></rect><rect x="464" y="320" width="11" height="11" rx="2" fill="#ebedf0"><title>2025-12-06: 0 contribuições</title></rect><rect x="478" y="236" width="11" height="11" rx="2" fill="#ebedf0"><title>2025-12-07: 0 contribuições</title></rect><rect x="478" y="250" width="11" height="11" rx="2" fill="#ebedf0"><title>2025-12-08: 0 contribuições</title></rect><rect x="478" y="264" width="11" height="11" rx="2" fill="#ebedf0"><title>2025-12-09: 0 contribuições</title></rect><rect x="478" y="278" width="11" height="11" rx="2" fill="#ebedf0"><title>2025-12-10: 0 contribuições</title></rect><rect x="478" y="292" width="11" height="11" rx="2" fill="#ebedf0"><title>2025-12-11: 0 contribuições</title></rect><rect x="478" y="306" width="11" height="11" rx="2" fill="#ebedf0"><title>2025-12-12: 0 contribuições</title></rect><rect x="478" y="320" width="11" height="11" rx="2" fill="#ebedf0"><title>2025-12-13: 0 contribuições</title></rect><rect x="492" y="236" width="11" height="11" rx="2" fill="#ebedf0"><title>2025-12-14: 0 contribuições</title></rect><rect x="492" y="250" width="11" height="11" rx="2" fill="#ebedf0"><title>2025-12-15: 0 contribuições</title></rect><rect x="492" y="264" width="11" height="11" rx="2" fill="#ebedf0"><title>2025-12-16: 0 contribuições</title></rect><rect x="492" y="278" width="11" height="11" rx="2" fill="#ebedf0"><title>2025-12-17: 0 contribuições</title></rect><rect x="492" y="292" width="11" height="11" rx="2" fill="#ebedf0"><title>2025-12-18: 0 contribuições</title></rect><rect x="492" y="306" width="11" height="11" rx="2" fill="#ebedf0"><title>2025-12-19: 0 contribuições</title></rect><rect x="492" y="320" width="11" height="11" rx="2" fill="#40c463"><title>2025-12-20: 2 contribuições</title></rect><rect x="506" y="236" width="11" height="11" rx="2" fill="#ebedf0"><title>2025-12-21: 0 contribuições</title></rect><rect x="506" y="250" width="11" height="11" rx="2" fill="#ebedf0"><title>2025-12-22: 0 contribuições</title></rect><rect x="506" y="264" width="11" height="11" rx="2" fill="#ebedf0"><title>2025-12-23: 0 contribuições</title></rect><rect x="506" y="278" width="11" height="11" rx="2" fill="#ebedf0"><title>2025-12-24: 0 contribuições</title></rect><rect x="506" y="292" width="11" height="11" rx="2" fill="#ebedf0"><title>2025-12-25: 0 contribuições</title></rect><rect x="506" y="306" width="11" height="11" rx="2" fill="#ebedf0"><title>2025-12-26: 0 contribuições</title></rect><rect x="506" y="320" width="11" height="11" rx="2" fill="#ebedf0"><title>2025-12-27: 0 contribuições</title></rect><rect x="520" y="236" width="11" height="11" rx="2" fill="#ebedf0"><title>2025-12-28: 0 contribuições</title></rect><rect x="520" y="250" width="11" height="11" rx="2" fill="#ebedf0"><title>2025-12-29: 0 contribuições</title></rect><rect x="520" y="264" width="11" height="11" rx="2" fill="#ebedf0"><title>2025-12-30: 0 contribuições</title></rect><rect x="520" y="278" width="11" height="11" rx="2" fill="#ebedf0"><title>2025-12-31: 0 contribuições</title></rect><rect x="520" y="292" width="11" height="11" rx="2" fill="#ebedf0"><title>2026-01-01: 0 contribuições</title></rect><rect x="520" y="306" width="11" height="11" rx="2" fill="#ebedf0"><title>2026-01-02: 0 contribuições</title></rect><rect x="520" y="320" width="11" height="11" rx="2" fill="#ebedf0"><title>2026-01-03: 0 contribuições</title></rect><rect x="534" y="236" width="11" height="11" rx="2" fill="#ebedf0"><title>2026-01-04: 0 contribuições</title></rect><rect x="534" y="250" width="11" height="11" rx="2" fill="#ebedf0"><title>2026-01-05: 0 contribuições</title></rect><rect x="534" y="264" width="11" height="11" rx="2" fill="#ebedf0"><title>2026-01-06: 0 contribuições</title></rect><rect x="534" y="278" width="11" height="11" rx="2" fill="#ebedf0"><title>2026-01-07: 0 contribuições</title></rect><rect x="534" y="292" width="11" height="11" rx="2" fill="#ebedf0"><title>2026-01-08: 0 contribuições</title></rect><rect x="534" y="306" width="11" height="11" rx="2" fill="#ebedf0"><title>2026-01-09: 0 contribuições</title></rect><rect x="534" y="320" width="11" height="11" rx="2" fill="#ebedf0"><title>2026-01-10: 0 contribuições</title></rect><rect x="548" y="236" width="11" height="11" rx="2" fill="#ebedf0"><title>2026-01-11: 0 contribuições</title></rect><rect x="548" y="250" width="11" height="11" rx="2" fill="#ebedf0"><title>2026-01-12: 0 contribuições</title></rect><rect x="548" y="264" width="11" height="11" rx="2" fill="#ebedf0"><title>2026-01-13: 0 contribuições</title></rect><rect x="548" y="278" width="11" height="11" rx="2" fill="#ebedf0"><title>2026-01-14: 0 contribuições</title></rect><rect x="548" y="292" width="11" height="11" rx="2" fill="#ebedf0"><title>2026-01-15: 0 contribuições</title></rect><rect x="548" y="306" width="11" height="11" rx="2" fill="#ebedf0"><title>2026-01-16: 0 contribuições</title></rect><rect x="548" y="320" width="11" height="11" rx="2" fill="#ebedf0"><title>2026-01-17: 0 contribuições</title></rect><rect x="562" y="236" width="11" height="11" rx="2" fill="#ebedf0"><title>2026-01-18: 0 contribuições</title></rect><rect x="562" y="250" width="11" height="11" rx="2" fill="#ebedf0"><title>2026-01-19: 0 contribuições</title></rect><rect x="562" y="264" width="11" height="11" rx="2" fill="#ebedf0"><title>2026-01-20: 0 contribuições</title></rect><rect x="562" y="278" width="11" height="11" rx="2" fill="#ebedf0"><title>2026-01-21: 0 contribuições</title></rect><rect x="562" y="292" width="11" height="11" rx="2" fill="#ebedf0"><title>2026-01-22: 0 contribuições</title></rect><rect x="562" y="306" width="11" height="11" rx="2" fill="#ebedf0"><title>2026-01-23: 0 contribuições</title></rect><rect x="562" y="320" width="11" height="11" rx="2" fill="#ebedf0"><title>2026-01-24: 0 contribuições</title></rect><rect x="576" y="236" width="11" height="11" rx="2" fill="#ebedf0"><title>2026-01-25: 0 contribuições</title></rect><rect x="576" y="250" width="11" height="11" rx="2" fill="#ebedf0"><title>2026-01-26: 0 contribuições</title></rect><rect x="576" y="264" width="11" height="11" rx="2" fill="#ebedf0"><title>2026-01-27: 0 contribuições</title></rect><rect x="576" y="278" width="11" height="11" rx="2" fill="#ebedf0"><title>2026-01-28: 0 contribuições</title></rect><rect x="576" y="292" width="11" height="11" rx="2" fill="#ebedf0"><title>2026-01-29: 0 contribuições</title></rect><rect x="576" y="306" width="11" height="11" rx="2" fill="#ebedf0"><title>2026-01-30: 0 contribuições</title></rect><rect x="576" y="320" width="11" height="11" rx="2" fill="#ebedf0"><title>2026-01-31: 0 contribuições</title></rect><rect x="590" y="236" width="11" height="11" rx="2" fill="#ebedf0"><title>2026-02-01: 0 contribuições</title></rect><rect x="590" y="250" width="11" height="11" rx="2" fill="#ebedf0"><title>2026-02-02: 0 contribuições</title></rect><rect x="590" y="264" width="11" height="11" rx="2" fill="#ebedf0"><title>2026-02-03: 0 contribuições</title></rect><rect x="590" y="278" width="11" height="11" rx="2" fill="#ebedf0"><title>2026-02-04: 0 contribuições</title></rect><rect x="590" y="292" width="11" height="11" rx="2" fill="#ebedf0"><title>2026-02-05: 0 contribuições</title></rect><rect x="590" y="306" width="11" height="11" rx="2" fill="#ebedf0"><title>2026-02-06: 0 contribuições</title></rect><rect x="590" y="320" width="11" height="11" rx="2" fill="#ebedf0"><title>2026-02-07: 0 contribuições</title></rect><rect x="604" y="236" width="11" height="11" rx="2" fill="#ebedf0"><title>2026-02-08: 0 contribuições</title></rect><rect x="604" y="250" width="11" height="11" rx="2" fill="#ebedf0"><title>2026-02-09: 0 contribuições</title></rect><rect x="604" y="264" width="11" height="11" rx="2" fill="#ebedf0"><title>2026-02-10: 0 contribuições</title></rect><rect x="604" y="278" width="11" height="11" rx="2" fill="#ebedf0"><title>2026-02-11: 0 contribuições</title></rect><rect x="604" y="292" width="11" height="11" rx="2" fill="#ebedf0"><title>2026-02-12: 0 contribuições</title></rect><rect x="604" y="306" width="11" height="11" rx="2" fill="#ebedf0"><title>2026-02-13: 0 contribuições</title></rect><rect x="604" y="320" width="11" height="11" rx="2" fill="#ebedf0"><title>2026-02-14: 0 contribuições</title></rect><rect x="618" y="236" width="11" height="11" rx="2" fill="#ebedf0"><title>2026-02-15: 0 contribuições</title></rect><rect x="618" y="250" width="11" height="11" rx="2" fill="#ebedf0"><title>2026-02-16: 0 contribuições</title></rect><rect x="618" y="264" width="11" height="11" rx="2" fill="#ebedf0"><title>2026-02-17: 0 contribuições</title></rect><rect x="618" y="278" width="11" height="11" rx="2" fill="#ebedf0"><title>2026-02-18: 0 contribuições</title></rect><rect x="618" y="292" width="11" height="11" rx="2" fill="#ebedf0"><title>2026-02-19: 0 contribuições</title></rect><rect x="618" y="306" width="11" height="11" rx="2" fill="#ebedf0"><title>2026-02-20: 0 contribuições</title></rect><rect x="618" y="320" width="11" height="11" rx="2" fill="#ebedf0"><title>2026-02-21: 0 contribuições</title></rect><rect x="632" y="236" width="11" height="11" rx="2" fill="#ebedf0"><title>2026-02-22: 0 contribuições</title></rect><rect x="632" y="250" width="11" height="11" rx="2" fill="#ebedf0"><title>2026-02-23: 0 contribuições</title></rect><rect x="632" y="264" width="11" height="11" rx="2" fill="#ebedf0"><title>2026-02-24: 0 contribuições</title></rect><rect x="632" y="278" width="11" height="11" rx="2" fill="#ebedf0"><title>2026-02-25: 0 contribuições</title></rect><rect x="632" y="292" width="11" height="11" rx="2" fill="#ebedf0"><title>2026-02-26: 0 contribuições</title></rect><rect x="632" y="306" width="11" height="11" rx="2" fill="#ebedf0"><title>2026-02-27: 0 contribuições</title></rect><rect x="632" y="320" width="11" height="11" rx="2" fill="#ebedf0"><title>2026-02-28: 0 contribuições</title></rect><rect x="646" y="236" width="11" height="11" rx="2" fill="#ebedf0"><title>2026-03-01: 0 contribuições</title></rect><rect x="646" y="250" width="11" height="11" rx="2" fill="#ebedf0"><title>2026-03-02: 0 contribuições</title></rect><rect x="646" y="264" width="11" height="11" rx="2" fill="#ebedf0"><title>2026-03-03: 0 contribuições</title></rect><rect x="646" y="278" width="11" height="11" rx="2" fill="#ebedf0"><title>2026-03-04: 0 contribuições</title></rect><rect x="646" y="292" width="11" height="11" rx="2" fill="#ebedf0"><title>2026-03-05: 0 contribuições</title></rect><rect x="646" y="306" width="11" height="11" rx="2" fill="#ebedf0"><title>2026-03-06: 0 contribuições</title></rect><rect x="646" y="320" width="11" height="11" rx="2" fill="#ebedf0"><title>2026-03-07: 0 contribuições</title></rect><rect x="660" y="236" width="11" height="11" rx="2" fill="#ebedf0"><title>2026-03-08: 0 contribuições</title></rect><rect x="660" y="250" width="11" height="11" rx="2" fill="#ebedf0"><title>2026-03-09: 0 contribuições</title></rect><rect x="660" y="264" width="11" height="11" rx="2" fill="#ebedf0"><title>2026-03-10: 0 contribuições</title></rect><rect x="660" y="278" width="11" height="11" rx="2" fill="#ebedf0"><title>2026-03-11: 0 contribuições</title></rect><rect x="660" y="292" width="11" height="11" rx="2" fill="#ebedf0"><title>2026-03-12: 0 contribuições</title></rect><rect x="660" y="306" width="11" height="11" rx="2" fill="#ebedf0"><title>2026-03-13: 0 contribuições</title></rect><rect x="660" y="320" width="11" height="11" rx="2" fill="#ebedf0"><title>2026-03-14: 0 contribuições</title></rect><rect x="674" y="236" width="11" height="11" rx="2" fill="#ebedf0"><title>2026-03-15: 0 contribuições</title></rect><rect x="674" y="250" width="11" height="11" rx="2" fill="#ebedf0"><title>2026-03-16: 0 contribuições</title></rect><rect x="674" y="264" width="11" height="11" rx="2" fill="#ebedf0"><title>2026-03-17: 0 contribuições</title></rect><rect x="674" y="278" width="11" height="11" rx="2" fill="#ebedf0"><title>2026-03-18: 0 contribuições</title></rect><rect x="674" y="292" width="11" height="11" rx="2" fill="#ebedf0"><title>2026-03-19: 0 contribuições</title></rect><rect x="674" y="306" width="11" height="11" rx="2" fill="#ebedf0"><title>2026-03-20: 0 contribuições</title></rect><rect x="674" y="320" width="11" height="11" rx="2" fill="#ebedf0"><title>2026-03-21: 0 contribuições</title></rect><rect x="688" y="236" width="11" height="11" rx="2" fill="#ebedf0"><title>2026-03-22: 0 contribuições</title></rect><rect x="688" y="250" width="11" height="11" rx="2" fill="#ebedf0"><title>2026-03-23: 0 contribuições</title></rect><rect x="688" y="264" width="11" height="11" rx="2" fill="#ebedf0"><title>2026-03-24: 0 contribuições</title></rect><rect x="688" y="278" width="11" height="11" rx="2" fill="#ebedf0"><title>2026-03-25: 0 contribuições</title></rect><rect x="688" y="292" width="11" height="11" rx="2" fill="#ebedf0"><title>2026-03-26: 0 contribuições</title></rect><rect x="688" y="306" width="11" height="11" rx="2" fill="#ebedf0"><title>2026-03-27: 0 contribuições</title></rect><rect x="688" y="320" width="11" height="11" rx="2" fill="#ebedf0"><title>2026-03-28: 0 contribuições</title></rect><rect x="702" y="236" width="11" height="11" rx="2" fill="#ebedf0"><title>2026-03-29: 0 contribuições</title></rect><rect x="702" y="250" width="11" height="11" rx="2" fill="#ebedf0"><title>2026-03-30: 0 contribuições</title></rect><rect x="702" y="264" width="11" height="11" rx="2" fill="#ebedf0"><title>2026-03-31: 0 contribuições</title></rect><rect x="702" y="278" width="11" height="11" rx="2" fill="#ebedf0"><title>2026-04-01: 0 contribuições</title></rect><rect x="702" y="292" width="11" height="11" rx="2" fill="#ebedf0"><title>2026-04-02: 0 contribuições</title></rect><rect x="702" y="306" width="11" height="11" rx="2" fill="#ebedf0"><title>2026-04-03: 0 contribuições</title></rect><rect x="702" y="320" width="11" height="11" rx="2" fill="#ebedf0"><title>2026-04-04: 0 contribuições</title></rect><rect x="716" y="236" width="11" height="11" rx="2" fill="#ebedf0"><title>2026-04-05: 0 contribuições</title></rect><rect x="716" y="250" width="11" height="11" rx="2" fill="#ebedf0"><title>2026-04-06: 0 contribuições</title></rect><rect x="716" y="264" width="11" height="11" rx="2" fill="#ebedf0"><title>2026-04-07: 0 contribuições</title></rect><rect x="716" y="278" width="11" height="11" rx="2" fill="#ebedf0"><title>2026-04-08: 0 contribuições</title></rect><rect x="716" y="292" width="11" height="11" rx="2" fill="#ebedf0"><title>2026-04-09: 0 contribuições</title></rect><rect x="716" y="306" width="11" height="11" rx="2" fill="#ebedf0"><title>2026-04-10: 0 contribuições</title></rect><rect x="716" y="320" width="11" height="11" rx="2" fill="#ebedf0"><title>2026-04-11: 0 contribuições</title></rect><rect x="730" y="236" width="11" height="11" rx="2" fill="#ebedf0"><title>2026-04-12: 0 contribuições</title></rect><rect x="730" y="250" width="11" height="11" rx="2" fill="#ebedf0"><title>2026-04-13: 0 contribuições</title></rect><rect x="730" y="264" width="11" height="11" rx="2" fill="#ebedf0"><title>2026-04-14: 0 contribuições</title></rect><rect x="730" y="278" width="11" height="11" rx="2" fill="#ebedf0"><title>2026-04-15: 0 contribuições</title></rect><rect x="730" y="292" width="11" height="11" rx="2" fill="#ebedf0"><title>2026-04-16: 0 contribuições</title></rect><rect x="730" y="306" width="11" height="11" rx="2" fill="#ebedf0"><title>2026-04-17: 0 contribuições</title></rect><rect x="730" y="320" width="11" height="11" rx="2" fill="#ebedf0"><title>2026-04-18: 0 contribuições</title></rect><rect x="744" y="236" width="11" height="11" rx="2" fill="#ebedf0"><title>2026-04-19: 0 contribuições</title></rect><rect x="744" y="250" width="11" height="11" rx="2" fill="#ebedf0"><title>2026-04-20: 0 contribuições</title></rect><rect x="744" y="264" width="11" height="11" rx="2" fill="#ebedf0"><title>2026-04-21: 0 contribuições</title></rect><rect x="744" y="278" width="11" height="11" rx="2" fill="#ebedf0"><title>2026-04-22: 0 contribuições</title></rect><rect x="744" y="292" width="11" height="11" rx="2" fill="#ebedf0"><title>2026-04-23: 0 contribuições</title></rect><rect x="744" y="306" width="11" height="11" rx="2" fill="#ebedf0"><title>2026-04-24: 0 contribuições</title></rect><rect x="744" y="320" width="11" height="11" rx="2" fill="#ebedf0"><title>2026-04-25: 0 contribuições</title></rect><rect x="758" y="236" width="11" height="11" rx="2" fill="#ebedf0"><title>2026-04-26: 0 contribuições</title></rect><rect x="758" y="250" width="11" height="11" rx="2" fill="#ebedf0"><title>2026-04-27: 0 contribuições</title></rect><rect x="758" y="264" width="11" height="11" rx="2" fill="#ebedf0"><title>2026-04-28: 0 contribuições</title></rect><rect x="758" y="278" width="11" height="11" rx="2" fill="#ebedf0"><title>2026-04-29: 0 contribuições</title></rect><rect x="758" y="292" width="11" height="11" rx="2" fill="#ebedf0"><title>2026-04-30: 0 contribuições</title></rect><rect x="758" y="306" width="11" height="11" rx="2" fill="#ebedf0"><title>2026-05-01: 0 contribuições</title></rect><rect x="758" y="320" width="11" height="11" rx="2" fill="#ebedf0"><title>2026-05-02: 0 contribuições</title></rect><rect x="772" y="236" width="11" height="11" rx="2" fill="#ebedf0"><title>2026-05-03: 0 contribuições</title></rect><rect x="772" y="250" width="11" height="11" rx="2" fill="#ebedf0"><title>2026-05-04: 0 contribuições</title></rect><rect x="772" y="264" width="11" height="11" rx="2" fill="#ebedf0"><title>2026-05-05: 0 contribuições</title></rect><rect x="772" y="278" width="11" height="11" rx="2" fill="#ebedf0"><title>2026-05-06: 0 contribuições</title></rect><rect x="772" y="292" width="11" height="11" rx="2" fill="#ebedf0"><title>2026-05-07: 0 contribuições</title></rect><rect x="772" y="306" width="11" height="11" rx="2" fill="#ebedf0"><title>2026-05-08: 0 contribuições</title></rect><rect x="772" y="320" width="11" height="11" rx="2" fill="#ebedf0"><title>2026-05-09: 0 contribuições</title></rect><rect x="786" y="236" width="11" height="11" rx="2" fill="#ebedf0"><title>2026-05-10: 0 contribuições</title></rect><rect x="786" y="250" width="11" height="11" rx="2" fill="#ebedf0"><title>2026-05-11: 0 contribuições</title></rect><rect x="786" y="264" width="11" height="11" rx="2" fill="#ebedf0"><title>2026-05-12: 0 contribuições</title></rect><rect x="786" y="278" width="11" height="11" rx="2" fill="#ebedf0"><title>2026-05-13: 0 contribuições</title></rect><rect x="786" y="292" width="11" height="11" rx="2" fill="#ebedf0"><title>2026-05-14: 0 contribuições</title></rect><rect x="786" y="306" width="11" height="11" rx="2" fill="#ebedf0"><title>2026-05-15: 0 contribuições</title></rect><rect x="786" y="320" width="11" height="11" rx="2" fill="#ebedf0"><title>2026-05-16: 0 contribuições</title></rect><rect x="800" y="236" width="11" height="11" rx="2" fill="#ebedf0"><title>2026-05-17: 0 contribuições</title></rect><rect x="800" y="250" width="11" height="11" rx="2" fill="#ebedf0"><title>2026-05-18: 0 contribuições</title></rect><rect x="800" y="264" width="11" height="11" rx="2" fill="#ebedf0"><title>2026-05-19: 0 contribuições</title></rect><rect x="800" y="278" width="11" height="11" rx="2" fill="#ebedf0"><title>2026-05-20: 0 contribuições</title></rect><rect x="800" y="292" width="11" height="11" rx="2" fill="#ebedf0"><title>2026-05-21: 0 contribuições</title></rect><rect x="800" y="306" width="11" height="11" rx="2" fill="#ebedf0"><title>2026-05-22: 0 contribuições</title></rect><rect x="800" y="320" width="11" height="11" rx="2" fill="#ebedf0"><title>2026-05-23: 0 contribuições</title></rect><rect x="814" y="236" width="11" height="11" rx="2" fill="#ebedf0"><title>2026-05-24: 0 contribuições</title></rect><rect x="814" y="250" width="11" height="11" rx="2" fill="#ebedf0"><title>2026-05-25: 0 contribuições</title></rect><rect x="814" y="264" width="11" height="11" rx="2" fill="#ebedf0"><title>2026-05-26: 0 contribuições</title></rect><rect x="814" y="278" width="11" height="11" rx="2" fill="#ebedf0"><title>2026-05-27: 0 contribuições</title></rect><rect x="814" y="292" width="11" height="11" rx="2" fill="#ebedf0"><title>2026-05-28: 0 contribuições</title></rect><rect x="814" y="306" width="11" height="11" rx="2" fill="#ebedf0"><title>2026-05-29: 0 contribuições</title></rect><rect x="814" y="320" width="11" height="11" rx="2" fill="#ebedf0"><title>2026-05-30: 0 contribuições</title></rect><rect x="828" y="236" width="11" height="11" rx="2" fill="#ebedf0"><title>2026-05-31: 0 contribuições</title></rect><rect x="828" y="250" width="11" height="11" rx="2" fill="#ebedf0"><title>2026-06-01: 0 contribuições</title></rect><rect x="828" y="264" width="11" height="11" rx="2" fill="#ebedf0"><title>2026-06-02: 0 contribuições</title></rect><rect x="828" y="278" width="11" height="11" rx="2" fill="#ebedf0"><title>2026-06-03: 0 contribuições</title></rect><rect x="828" y="292" width="11" height="11" rx="2" fill="#ebedf0"><title>2026-06-04: 0 contribuições</title></rect><rect x="828" y="306" width="11" height="11" rx="2" fill="#216e39"><title>2026-06-05: 4 contribuições</title></rect><rect x="828" y="320" width="11" height="11" rx="2" fill="#ebedf0"><title>2026-06-06: 0 contribuições</title></rect><rect x="842" y="236" width="11" height="11" rx="2" fill="#ebedf0"><title>2026-06-07: 0 contribuições</title></rect><rect x="842" y="250" width="11" height="11" rx="2" fill="#40c463"><title>2026-06-08: 2 contribuições</title></rect><rect x="842" y="264" width="11" height="11" rx="2" fill="#ebedf0"><title>2026-06-09: 0 contribuições</title></rect><rect x="842" y="278" width="11" height="11" rx="2" fill="#ebedf0"><title>2026-06-10: 0 contribuições</title></rect><rect x="842" y="292" width="11" height="11" rx="2" fill="#ebedf0"><title>2026-06-11: 0 contribuições</title></rect><rect x="842" y="306" width="11" height="11" rx="2" fill="#ebedf0"><title>2026-06-12: 0 contribuições</title></rect><rect x="842" y="320" width="11" height="11" rx="2" fill="#ebedf0"><title>2026-06-13: 0 contribuições</title></rect><rect x="856" y="236" width="11" height="11" rx="2" fill="#ebedf0"><title>2026-06-14: 0 contribuições</title></rect><rect x="856" y="250" width="11" height="11" rx="2" fill="#ebedf0"><title>2026-06-15: 0 contribuições</title></rect><rect x="856" y="264" width="11" height="11" rx="2" fill="#ebedf0"><title>2026-06-16: 0 contribuições</title></rect><rect x="856" y="278" width="11" height="11" rx="2" fill="#40c463"><title>2026-06-17: 2 contribuições</title></rect><rect x="856" y="292" width="11" height="11" rx="2" fill="#ebedf0"><title>2026-06-18: 0 contribuições</title></rect><rect x="856" y="306" width="11" height="11" rx="2" fill="#216e39"><title>2026-06-19: 4 contribuições</title></rect><rect x="856" y="320" width="11" height="11" rx="2" fill="#ebedf0"><title>2026-06-20: 0 contribuições</title></rect><rect x="870" y="236" width="11" height="11" rx="2" fill="#216e39"><title>2026-06-21: 11 contribuições</title></rect>
  
    <g transform="translate(28 362)">
      <rect width="172" height="82" rx="8" fill="#f6f8fa" stroke="#d0d7de"/>
      <text x="18" y="32" class="label">Sequência atual</text>
      <text x="18" y="62" class="value">0 dias</text>
    </g>
    <g transform="translate(213 362)">
      <rect width="172" height="82" rx="8" fill="#f6f8fa" stroke="#d0d7de"/>
      <text x="18" y="32" class="label">Maior sequência</text>
      <text x="18" y="62" class="value">3 dias</text>
    </g>
    <g transform="translate(398 362)">
      <rect width="172" height="82" rx="8" fill="#f6f8fa" stroke="#d0d7de"/>
      <text x="18" y="32" class="label">Dias ativos</text>
      <text x="18" y="62" class="value">19 / 365</text>
    </g>
    <g transform="translate(583 362)">
      <rect width="172" height="82" rx="8" fill="#f6f8fa" stroke="#d0d7de"/>
      <text x="18" y="32" class="label">Dia mais ativo</text>
      <text x="18" y="62" class="value">22 em 16/07/2025</text>
    </g>
    <g transform="translate(768 362)">
      <rect width="172" height="82" rx="8" fill="#f6f8fa" stroke="#d0d7de"/>
      <text x="18" y="32" class="label">Repositórios públicos</text>
      <text x="18" y="62" class="value">14</text>
    </g>
  <text x="28" y="482" class="section">Contribuições em outros projetos</text><a href="https://github.com/coollabsio/coolify"><text class="repo" x="28" y="512">coollabsio/coolify · 4</text></a>
</svg>
