<svg xmlns="http://www.w3.org/2000/svg" width="980" height="330" viewBox="0 0 980 330" role="img" aria-labelledby="title desc">
  <title id="title">Linguagens e atividade de Ailton Rodrigues no GitHub</title>
  <desc id="desc">Distribuição das linguagens nos repositórios acessíveis e contribuições mensais dos últimos doze meses.</desc>
  <style>
    text { font-family: -apple-system, BlinkMacSystemFont, "Segoe UI", Helvetica, Arial, sans-serif; fill: #e6edf3; }
    .heading { font-size: 19px; font-weight: 650; }
    .label { font-size: 13px; font-weight: 550; }
    .muted, .small { font-size: 11px; fill: #8b949e; }
    .count { font-size: 10px; font-weight: 600; fill: #8b949e; }
  </style>
  <text x="28" y="32" class="heading">Linguagens mais usadas</text>
  <text x="28" y="53" class="muted">Por volume de código · 24 repositórios analisados · 13 privados</text>
  <circle cx="33" cy="88" r="5" fill="#3572A5"/><text x="46" y="92" class="label">Python</text><rect x="172" y="80" width="260" height="10" rx="5" fill="#21262d"/><rect x="172" y="80" width="139.9" height="10" rx="5" fill="#3572A5"/><text x="432" y="107" text-anchor="end" class="small">53.8% · 11 repos</text><circle cx="33" cy="125" r="5" fill="#f1e05a"/><text x="46" y="129" class="label">JavaScript</text><rect x="172" y="117" width="260" height="10" rx="5" fill="#21262d"/><rect x="172" y="117" width="64.8" height="10" rx="5" fill="#f1e05a"/><text x="432" y="144" text-anchor="end" class="small">24.9% · 9 repos</text><circle cx="33" cy="162" r="5" fill="#e34c26"/><text x="46" y="166" class="label">HTML</text><rect x="172" y="154" width="260" height="10" rx="5" fill="#21262d"/><rect x="172" y="154" width="24.7" height="10" rx="5" fill="#e34c26"/><text x="432" y="181" text-anchor="end" class="small">9.5% · 8 repos</text><circle cx="33" cy="199" r="5" fill="#663399"/><text x="46" y="203" class="label">CSS</text><rect x="172" y="191" width="260" height="10" rx="5" fill="#21262d"/><rect x="172" y="191" width="11.7" height="10" rx="5" fill="#663399"/><text x="432" y="218" text-anchor="end" class="small">4.5% · 8 repos</text><circle cx="33" cy="236" r="5" fill="#F05138"/><text x="46" y="240" class="label">Swift</text><rect x="172" y="228" width="260" height="10" rx="5" fill="#21262d"/><rect x="172" y="228" width="7.7" height="10" rx="5" fill="#F05138"/><text x="432" y="255" text-anchor="end" class="small">2.9% · 1 repo</text><circle cx="33" cy="273" r="5" fill="#A97BFF"/><text x="46" y="277" class="label">Kotlin</text><rect x="172" y="265" width="260" height="10" rx="5" fill="#21262d"/><rect x="172" y="265" width="7.1" height="10" rx="5" fill="#A97BFF"/><text x="432" y="292" text-anchor="end" class="small">2.7% · 1 repo</text>
  <line x1="486" y1="22" x2="486" y2="306" stroke="#30363d"/>
  <text x="526" y="32" class="heading">Atividade mensal</text>
  <text x="526" y="53" class="muted">81 contribuições em 12 meses</text>
  <line x1="526" y1="94.0" x2="946" y2="94.0" stroke="#30363d" stroke-width="1" opacity="0.65"/><line x1="526" y1="154.0" x2="946" y2="154.0" stroke="#30363d" stroke-width="1" opacity="0.65"/><line x1="526" y1="214.0" x2="946" y2="214.0" stroke="#30363d" stroke-width="1" opacity="0.65"/><line x1="526" y1="274.0" x2="946" y2="274.0" stroke="#30363d" stroke-width="1" opacity="0.65"/><rect x="526.0" y="94.0" width="27.7" height="180.0" rx="4" fill="#58a6ff" opacity="1"><title>Jul 2025: 41 contribuições</title></rect><text x="539.8" y="296" text-anchor="middle" class="small">Jul</text><text x="539.8" y="107.0" text-anchor="middle" class="count">41</text><rect x="561.7" y="265.2" width="27.7" height="8.8" rx="4" fill="#58a6ff" opacity="1"><title>Ago 2025: 2 contribuições</title></rect><text x="575.5" y="296" text-anchor="middle" class="small">Ago</text><text x="575.5" y="259.2" text-anchor="middle" class="count">2</text><rect x="597.3" y="260.8" width="27.7" height="13.2" rx="4" fill="#58a6ff" opacity="1"><title>Set 2025: 3 contribuições</title></rect><text x="611.2" y="296" text-anchor="middle" class="small">Set</text><text x="611.2" y="254.8" text-anchor="middle" class="count">3</text><rect x="633.0" y="260.8" width="27.7" height="13.2" rx="4" fill="#58a6ff" opacity="1"><title>Out 2025: 3 contribuições</title></rect><text x="646.8" y="296" text-anchor="middle" class="small">Out</text><text x="646.8" y="254.8" text-anchor="middle" class="count">3</text><rect x="668.7" y="269.6" width="27.7" height="4.4" rx="4" fill="#58a6ff" opacity="1"><title>Nov 2025: 1 contribuições</title></rect><text x="682.5" y="296" text-anchor="middle" class="small">Nov</text><text x="682.5" y="263.6" text-anchor="middle" class="count">1</text><rect x="704.3" y="265.2" width="27.7" height="8.8" rx="4" fill="#58a6ff" opacity="1"><title>Dez 2025: 2 contribuições</title></rect><text x="718.2" y="296" text-anchor="middle" class="small">Dez</text><text x="718.2" y="259.2" text-anchor="middle" class="count">2</text><rect x="740.0" y="274.0" width="27.7" height="2.0" rx="4" fill="#58a6ff" opacity="0.28"><title>Jan 2026: 0 contribuições</title></rect><text x="753.8" y="296" text-anchor="middle" class="small">Jan</text><rect x="775.7" y="274.0" width="27.7" height="2.0" rx="4" fill="#58a6ff" opacity="0.28"><title>Fev 2026: 0 contribuições</title></rect><text x="789.5" y="296" text-anchor="middle" class="small">Fev</text><rect x="811.3" y="274.0" width="27.7" height="2.0" rx="4" fill="#58a6ff" opacity="0.28"><title>Mar 2026: 0 contribuições</title></rect><text x="825.2" y="296" text-anchor="middle" class="small">Mar</text><rect x="847.0" y="274.0" width="27.7" height="2.0" rx="4" fill="#58a6ff" opacity="0.28"><title>Abr 2026: 0 contribuições</title></rect><text x="860.8" y="296" text-anchor="middle" class="small">Abr</text><rect x="882.7" y="274.0" width="27.7" height="2.0" rx="4" fill="#58a6ff" opacity="0.28"><title>Mai 2026: 0 contribuições</title></rect><text x="896.5" y="296" text-anchor="middle" class="small">Mai</text><rect x="918.3" y="155.5" width="27.7" height="118.5" rx="4" fill="#58a6ff" opacity="1"><title>Jun 2026: 27 contribuições</title></rect><text x="932.2" y="296" text-anchor="middle" class="small">Jun</text><text x="932.2" y="149.5" text-anchor="middle" class="count">27</text>
  <text x="28" y="318" class="muted">Dados da API oficial do GitHub · linguagens indicam distribuição de código, não nível de habilidade · atualizado em 23/06/2026</text>
</svg>
